<svg width="1523" height="68" viewBox="0 0 1523 68" fill="none" xmlns="http://www.w3.org/2000/svg">
<g filter="url(#filter0_n_350_189)">
<path d="M19.5146 0C23.9923 3.63985e-07 27.7824 2.94292 29.0566 7H257.109C258.384 2.94304 262.174 0.000187591 266.651 0H267.682C272.159 4.04799e-05 275.949 2.94294 277.224 7H505.276C506.551 2.94295 510.341 6.72521e-05 514.818 0H515.849C520.326 0.000187565 524.116 2.94303 525.391 7H753.443C754.718 2.94289 758.508 3.95078e-07 762.985 0H764.015C768.492 3.63981e-07 772.282 2.94289 773.557 7H1001.61C1002.88 2.94299 1006.67 0.00016085 1011.15 0H1012.18C1016.66 8.05959e-05 1020.45 2.94293 1021.72 7H1249.78C1251.05 2.94287 1254.84 3.95079e-07 1259.32 0H1260.35C1264.83 0.000214309 1268.62 2.94301 1269.89 7H1497.94C1499.22 2.94286 1503.01 3.95089e-07 1507.49 0H1508C1512.48 3.63997e-07 1516.27 2.94286 1517.54 7H1523V61H1517.54C1516.27 65.057 1512.48 68 1508 68H1507.49C1503.01 68 1499.22 65.057 1497.94 61H1269.89C1268.62 65.0569 1264.83 67.9998 1260.35 68H1259.32C1254.84 68 1251.05 65.057 1249.78 61H1021.72C1020.45 65.057 1016.66 67.9999 1012.18 68H1011.15C1006.67 67.9998 1002.88 65.0569 1001.61 61H773.557C772.282 65.057 768.492 68 764.015 68H762.985C758.508 68 754.718 65.057 753.443 61H525.391C524.116 65.0569 520.326 67.9998 515.849 68H514.818C510.341 67.9999 506.551 65.057 505.276 61H277.224C275.949 65.057 272.159 68 267.682 68H266.651C262.174 67.9998 258.384 65.0569 257.109 61H29.0566C27.7824 65.0571 23.9923 68 19.5146 68H19C14.5224 68 10.7323 65.0571 9.45801 61H0V7H9.45801C10.7323 2.94292 14.5224 3.95078e-07 19 0H19.5146Z" fill="url(#paint0_linear_350_189)"/>
</g>
<defs>
<filter id="filter0_n_350_189" x="0" y="0" width="1523" height="68" filterUnits="userSpaceOnUse" color-interpolation-filters="sRGB">
<feFlood flood-opacity="0" result="BackgroundImageFix"/>
<feBlend mode="normal" in="SourceGraphic" in2="BackgroundImageFix" result="shape"/>
<feTurbulence type="fractalNoise" baseFrequency="0.083333335816860199 1.4285714626312256" stitchTiles="stitch" numOctaves="3" result="noise" seed="9399" />
<feColorMatrix in="noise" type="luminanceToAlpha" result="alphaNoise" />
<feComponentTransfer in="alphaNoise" result="coloredNoise1">
<feFuncA type="discrete" tableValues="0 0 0 0 0 0 0 0 0 0 0 0 0 0 0 0 0 0 0 1 1 1 1 1 1 1 1 1 1 1 0 0 0 0 0 0 0 0 0 0 0 0 0 0 0 0 0 0 0 0 0 0 0 0 0 0 0 0 0 0 0 0 0 0 0 0 0 0 0 0 0 0 0 0 0 0 0 0 0 0 0 0 0 0 0 0 0 0 0 0 0 0 0 0 0 0 0 0 0 0 "/>
</feComponentTransfer>
<feComposite operator="in" in2="shape" in="coloredNoise1" result="noise1Clipped" />
<feComponentTransfer in="alphaNoise" result="coloredNoise2">
<feFuncA type="discrete" tableValues="0 0 0 0 0 0 0 0 0 0 0 0 0 0 0 0 0 0 0 0 0 0 0 0 0 0 0 0 0 0 0 0 0 0 0 0 0 0 0 0 0 0 0 0 0 0 0 0 0 0 0 0 0 0 0 0 0 0 0 0 0 0 0 0 0 0 0 0 0 0 1 1 1 1 1 1 1 1 1 1 1 0 0 0 0 0 0 0 0 0 0 0 0 0 0 0 0 0 0 0 "/>
</feComponentTransfer>
<feComposite operator="in" in2="shape" in="coloredNoise2" result="noise2Clipped" />
<feFlood flood-color="#63493C" result="color1Flood" />
<feComposite operator="in" in2="noise1Clipped" in="color1Flood" result="color1" />
<feFlood flood-color="#E4CAC0" result="color2Flood" />
<feComposite operator="in" in2="noise2Clipped" in="color2Flood" result="color2" />
<feMerge result="effect1_noise_350_189">
<feMergeNode in="shape" />
<feMergeNode in="color1" />
<feMergeNode in="color2" />
</feMerge>
</filter>
<linearGradient id="paint0_linear_350_189" x1="0" y1="34" x2="1523" y2="34" gradientUnits="userSpaceOnUse">
<stop offset="0.146439" stop-color="#302B28"/>
<stop offset="0.300365" stop-color="#AF6638"/>
<stop offset="0.855769" stop-color="#AF6638"/>
<stop offset="0.932692" stop-color="#373B3B"/>
</linearGradient>
</defs>
</svg>
